<?xml version="1.0" encoding="UTF-8" standalone="no"?><!DOCTYPE svg PUBLIC "-//W3C//DTD SVG 1.1//EN" "http://www.w3.org/Graphics/SVG/1.1/DTD/svg11.dtd"><!-- Generated by graphviz version 2.40.1 (20161225.0304)
 --><!-- Title: G Pages: 1 --><svg xmlns="http://www.w3.org/2000/svg" xmlns:xlink="http://www.w3.org/1999/xlink" width="262pt" height="250pt" viewBox="0.00 0.00 261.68 250.00">
<g id="graph0" class="graph" transform="scale(1 1) rotate(0) translate(4 246)">
<title>G</title>
<polygon fill="#ffffff" stroke="transparent" points="-4,4 -4,-246 257.6804,-246 257.6804,4 -4,4"/>
<!-- koren -->
<g id="node1" class="node">
<title>koren</title>
<polygon fill="#add8e6" stroke="transparent" points="52.5,-200 52.5,-238 169.5,-238 169.5,-200 52.5,-200"/>
<polygon fill="none" stroke="#000000" points="53,-200 53,-238 82,-238 82,-200 53,-200"/>
<text text-anchor="start" x="64" y="-214.4" font-family="Times,serif" font-size="14.00" fill="#000000">*</text>
<polygon fill="none" stroke="#000000" points="82,-200 82,-238 111,-238 111,-200 82,-200"/>
<text text-anchor="start" x="93" y="-214.4" font-family="Times,serif" font-size="14.00" fill="#000000">*</text>
<polygon fill="none" stroke="#000000" points="111,-200 111,-238 140,-238 140,-200 111,-200"/>
<text text-anchor="start" x="122" y="-214.4" font-family="Times,serif" font-size="14.00" fill="#000000">*</text>
<polygon fill="#ffffff" stroke="transparent" points="140,-200 140,-238 170,-238 170,-200 140,-200"/>
<polygon fill="none" stroke="#000000" points="140,-200 140,-238 170,-238 170,-200 140,-200"/>
<text text-anchor="start" x="150.9197" y="-214.4" font-family="Times,serif" font-size="14.00" fill="#000000"> </text>
</g>
<!-- korpa_0 -->
<g id="node2" class="node">
<title>korpa_0</title>
<polygon fill="#add8e6" stroke="transparent" points="12.5,-4 12.5,-156 41.5,-156 41.5,-4 12.5,-4"/>
<polygon fill="none" stroke="#000000" points="13,-118 13,-156 42,-156 42,-118 13,-118"/>
<text text-anchor="start" x="24" y="-132.4" font-family="Times,serif" font-size="14.00" fill="#000000">5</text>
<polygon fill="none" stroke="#000000" points="13,-80 13,-118 42,-118 42,-80 13,-80"/>
<text text-anchor="start" x="24" y="-94.4" font-family="Times,serif" font-size="14.00" fill="#000000">7</text>
<polygon fill="none" stroke="#000000" points="13,-42 13,-80 42,-80 42,-42 13,-42"/>
<text text-anchor="start" x="24" y="-56.4" font-family="Times,serif" font-size="14.00" fill="#000000">2</text>
<polygon fill="none" stroke="#000000" points="13,-4 13,-42 42,-42 42,-4 13,-4"/>
<text text-anchor="start" x="24" y="-18.4" font-family="Times,serif" font-size="14.00" fill="#000000">6</text>
</g>
<!-- koren&#45;&gt;korpa_0 -->
<g id="edge1" class="edge">
<title>koren:p0-&gt;korpa_0:n</title>
<path fill="none" stroke="#000000" d="M67,-200C67,-177.9514 39.2354,-180.3891 30.5589,-165.9925"/>
<polygon fill="#000000" stroke="#000000" points="33.8714,-164.8191 28,-156 27.0903,-166.5557 33.8714,-164.8191"/>
</g>
<!-- korpa_1 -->
<g id="node3" class="node">
<title>korpa_1</title>
<polygon fill="#add8e6" stroke="transparent" points="68.5,-4 68.5,-156 97.5,-156 97.5,-4 68.5,-4"/>
<polygon fill="none" stroke="#000000" points="69,-118 69,-156 98,-156 98,-118 69,-118"/>
<text text-anchor="start" x="80" y="-132.4" font-family="Times,serif" font-size="14.00" fill="#000000">2</text>
<polygon fill="none" stroke="#000000" points="69,-80 69,-118 98,-118 98,-80 69,-80"/>
<text text-anchor="start" x="80" y="-94.4" font-family="Times,serif" font-size="14.00" fill="#000000">4</text>
<polygon fill="none" stroke="#000000" points="69,-42 69,-80 98,-80 98,-42 69,-42"/>
<text text-anchor="start" x="80" y="-56.4" font-family="Times,serif" font-size="14.00" fill="#000000">8</text>
<polygon fill="none" stroke="#000000" points="69,-4 69,-42 98,-42 98,-4 69,-4"/>
<text text-anchor="start" x="80" y="-18.4" font-family="Times,serif" font-size="14.00" fill="#000000">3</text>
</g>
<!-- koren&#45;&gt;korpa_1 -->
<g id="edge2" class="edge">
<title>koren:p1-&gt;korpa_1:n</title>
<path fill="none" stroke="#000000" d="M96,-200C96,-183.6892 88.2297,-178.2627 85.1945,-166.2036"/>
<polygon fill="#000000" stroke="#000000" points="88.639,-165.5252 84,-156 81.6865,-166.3392 88.639,-165.5252"/>
</g>
<!-- korpa_2 -->
<g id="node4" class="node">
<title>korpa_2</title>
<polygon fill="#add8e6" stroke="transparent" points="124,-4 124,-156 154,-156 154,-4 124,-4"/>
<polygon fill="none" stroke="#000000" points="124,-118 124,-156 154,-156 154,-118 124,-118"/>
<text text-anchor="start" x="135.5" y="-132.4" font-family="Times,serif" font-size="14.00" fill="#000000">2</text>
<polygon fill="none" stroke="#000000" points="124,-80 124,-118 154,-118 154,-80 124,-80"/>
<text text-anchor="start" x="135.5" y="-94.4" font-family="Times,serif" font-size="14.00" fill="#000000">4</text>
<polygon fill="#ffffff" stroke="transparent" points="124,-42 124,-80 154,-80 154,-42 124,-42"/>
<polygon fill="none" stroke="#000000" points="124,-42 124,-80 154,-80 154,-42 124,-42"/>
<text text-anchor="start" x="134.9197" y="-56.4" font-family="Times,serif" font-size="14.00" fill="#000000"> </text>
<polygon fill="#ffffff" stroke="transparent" points="124,-4 124,-42 154,-42 154,-4 124,-4"/>
<polygon fill="none" stroke="#000000" points="124,-4 124,-42 154,-42 154,-4 124,-4"/>
<text text-anchor="start" x="134.9197" y="-18.4" font-family="Times,serif" font-size="14.00" fill="#000000"> </text>
</g>
<!-- koren&#45;&gt;korpa_2 -->
<g id="edge3" class="edge">
<title>koren:p2-&gt;korpa_2:n</title>
<path fill="none" stroke="#000000" d="M126,-200C126,-183.5914 134.4178,-178.3032 137.706,-166.2385"/>
<polygon fill="#000000" stroke="#000000" points="141.2184,-166.36 139,-156 134.2736,-165.4822 141.2184,-166.36"/>
</g>
<!-- korpa_3 -->
<!-- koren&#45;&gt;korpa_3 -->
</g>
</svg>